<svg xmlns="http://www.w3.org/2000/svg" viewBox="0 0 24 24" width="64" height="64">
  <path fill="#000000" d="M9 4l-.91-1.82a.5.5 0 0 1 .87-.48L10.9 4h2.2l1.95-2.3a.5.5 0 0 1 .87.48L15 4c1.93.07 3.5 1.64 3.5 3.58c0 .96-.38 1.84-1 2.48V14a5 5 0 0 1-5 5v1.5a.5.5 0 0 1-1 0V19h-1v1.5a.5.5 0 0 1-1 0V19a5 5 0 0 1-5-5V10.06a3.5 3.5 0 0 1-1-2.48C5.5 5.64 7.07 4.07 9 4zm1 12.5c.83 0 1.5-.67 1.5-1.5s-.67-1.5-1.5-1.5s-1.5.67-1.5 1.5s.67 1.5 1.5 1.5zm4 0c.83 0 1.5-.67 1.5-1.5s-.67-1.5-1.5-1.5s-1.5.67-1.5 1.5s.67 1.5 1.5 1.5zm-8-9C5.67 7.5 5 8.17 5 9s.67 1.5 1.5 1.5S8 9.83 8 9S7.33 7.5 6.5 7.5zm11 0C16.67 7.5 16 8.17 16 9s.67 1.5 1.5 1.5S19 9.83 19 9s-.67-1.5-1.5-1.5z"/>
</svg>
